<svg width="0" height="0" class="hidden">
  <symbol fill="none" xmlns="http://www.w3.org/2000/svg" viewBox="0 0 48 48" id="Calling">
    <path opacity="0.4" d="M28.706 5C36.108 5.822 41.956 11.662 42.786 19.064" stroke="#FF5722" stroke-width="3" stroke-linecap="round" stroke-linejoin="round"></path>
    <path opacity="0.4" d="M28.706 12.086C32.248 12.774 35.016 15.544 35.706 19.086" stroke="#FF5722" stroke-width="3" stroke-linecap="round" stroke-linejoin="round"></path>
    <path fill-rule="evenodd" clip-rule="evenodd" d="M22.063 24.9448C30.041 32.9207 31.8509 23.6934 36.9305 28.7696C41.8276 33.6655 44.6444 34.6464 38.4376 40.8494C37.6605 41.474 32.7225 48.9885 15.3689 31.6393C-1.98681 14.288 5.52313 9.34489 6.14789 8.5679C12.3675 2.34769 13.3336 5.17877 18.2308 10.0747C23.3083 15.153 14.0851 16.9688 22.063 24.9448Z" stroke="#FF5722" stroke-width="3" stroke-linecap="round" stroke-linejoin="round"></path>
  </symbol>
  <symbol fill="none" xmlns="http://www.w3.org/2000/svg" viewBox="0 0 24 24" id="linkedin">
    <path d="M19 3C19.5304 3 20.0391 3.21071 20.4142 3.58579C20.7893 3.96086 21 4.46957 21 5V19C21 19.5304 20.7893 20.0391 20.4142 20.4142C20.0391 20.7893 19.5304 21 19 21H5C4.46957 21 3.96086 20.7893 3.58579 20.4142C3.21071 20.0391 3 19.5304 3 19V5C3 4.46957 3.21071 3.96086 3.58579 3.58579C3.96086 3.21071 4.46957 3 5 3H19ZM18.5 18.5V13.2C18.5 12.3354 18.1565 11.5062 17.5452 10.8948C16.9338 10.2835 16.1046 9.94 15.24 9.94C14.39 9.94 13.4 10.46 12.92 11.24V10.13H10.13V18.5H12.92V13.57C12.92 12.8 13.54 12.17 14.31 12.17C14.6813 12.17 15.0374 12.3175 15.2999 12.5801C15.5625 12.8426 15.71 13.1987 15.71 13.57V18.5H18.5ZM6.88 8.56C7.32556 8.56 7.75288 8.383 8.06794 8.06794C8.383 7.75288 8.56 7.32556 8.56 6.88C8.56 5.95 7.81 5.19 6.88 5.19C6.43178 5.19 6.00193 5.36805 5.68499 5.68499C5.36805 6.00193 5.19 6.43178 5.19 6.88C5.19 7.81 5.95 8.56 6.88 8.56M8.27 18.5V10.13H5.5V18.5H8.27V18.5Z" fill="#FF5722"></path>
  </symbol>
  <symbol fill="none" xmlns="http://www.w3.org/2000/svg" viewBox="0 0 48 49" id="Location">
    <path fill-rule="evenodd" clip-rule="evenodd" d="M8.47826 21.2826C8.50708 12.8014 15.4058 5.94945 23.887 5.97817C32.3681 6.00708 39.2201 12.9058 39.1914 21.387V21.5609C39.087 27.0739 36.0087 32.1696 32.2348 36.1522C30.0765 38.3934 27.6663 40.3776 25.0522 42.0652C24.3532 42.6698 23.3164 42.6698 22.6174 42.0652C18.7204 39.5287 15.3001 36.3263 12.513 32.6043C10.029 29.3588 8.61859 25.4195 8.47826 21.3348V21.2826Z" stroke="#FF5722" stroke-width="3" stroke-linecap="round" stroke-linejoin="round"></path>
    <path opacity="0.4" d="M23.8348 26.5C26.553 26.5 28.7565 24.2965 28.7565 21.5783C28.7565 18.8601 26.553 16.6565 23.8348 16.6565C21.1166 16.6565 18.913 18.8601 18.913 21.5783C18.913 24.2965 21.1166 26.5 23.8348 26.5Z" stroke="#FF5722" stroke-width="3" stroke-linecap="round" stroke-linejoin="round"></path>
  </symbol>
  <symbol fill="none" xmlns="http://www.w3.org/2000/svg" viewBox="0 0 48 49" id="Message">
    <path opacity="0.4" d="M34.5355 17.6223L26.0046 24.4908C24.3902 25.7565 22.127 25.7565 20.5126 24.4908L11.9085 17.6223" stroke="#FF5722" stroke-width="3" stroke-linecap="round" stroke-linejoin="round"></path>
    <path fill-rule="evenodd" clip-rule="evenodd" d="M13.7757 6.5H32.6316C35.3504 6.53049 37.9381 7.67986 39.792 9.6804C41.646 11.681 42.6043 14.3581 42.4439 17.0882V30.144C42.6043 32.8742 41.646 35.5513 39.792 37.5518C37.9381 39.5524 35.3504 40.7017 32.6316 40.7322H13.7757C7.93593 40.7322 4 35.9813 4 30.144V17.0882C4 11.2509 7.93593 6.5 13.7757 6.5Z" stroke="#FF5722" stroke-width="3" stroke-linecap="round" stroke-linejoin="round"></path>
  </symbol>
  <symbol fill="none" xmlns="http://www.w3.org/2000/svg" viewBox="0 0 24 24" id="telegram">
    <path d="M12 2C6.48 2 2 6.48 2 12C2 17.52 6.48 22 12 22C17.52 22 22 17.52 22 12C22 6.48 17.52 2 12 2ZM16.64 8.8C16.49 10.38 15.84 14.22 15.51 15.99C15.37 16.74 15.09 16.99 14.83 17.02C14.25 17.07 13.81 16.64 13.25 16.27C12.37 15.69 11.87 15.33 11.02 14.77C10.03 14.12 10.67 13.76 11.24 13.18C11.39 13.03 13.95 10.7 14 10.49C14.0069 10.4582 14.006 10.4252 13.9973 10.3938C13.9886 10.3624 13.9724 10.3337 13.95 10.31C13.89 10.26 13.81 10.28 13.74 10.29C13.65 10.31 12.25 11.24 9.52 13.08C9.12 13.35 8.76 13.49 8.44 13.48C8.08 13.47 7.4 13.28 6.89 13.11C6.26 12.91 5.77 12.8 5.81 12.45C5.83 12.27 6.08 12.09 6.55 11.9C9.47 10.63 11.41 9.79 12.38 9.39C15.16 8.23 15.73 8.03 16.11 8.03C16.19 8.03 16.38 8.05 16.5 8.15C16.6 8.23 16.63 8.34 16.64 8.42C16.63 8.48 16.65 8.66 16.64 8.8V8.8Z" fill="#FF5722"></path>
  </symbol>
  <symbol fill="none" xmlns="http://www.w3.org/2000/svg" viewBox="0 0 24 24" id="twitter">
    <path d="M22.46 6C21.69 6.35 20.86 6.58 20 6.69C20.88 6.16 21.56 5.32 21.88 4.31C21.05 4.81 20.13 5.16 19.16 5.36C18.37 4.5 17.26 4 16 4C13.65 4 11.73 5.92 11.73 8.29C11.73 8.63 11.77 8.96 11.84 9.27C8.27999 9.09 5.10999 7.38 2.99999 4.79C2.62999 5.42 2.41999 6.16 2.41999 6.94C2.41999 8.43 3.16999 9.75 4.32999 10.5C3.61999 10.5 2.95999 10.3 2.37999 10V10.03C2.37999 12.11 3.85999 13.85 5.81999 14.24C5.19072 14.4122 4.53009 14.4362 3.88999 14.31C4.1616 15.1625 4.69353 15.9084 5.41101 16.4429C6.12849 16.9775 6.99544 17.2737 7.88999 17.29C6.37362 18.4904 4.49399 19.1393 2.55999 19.13C2.21999 19.13 1.87999 19.11 1.53999 19.07C3.43999 20.29 5.69999 21 8.11999 21C16 21 20.33 14.46 20.33 8.79C20.33 8.6 20.33 8.42 20.32 8.23C21.16 7.63 21.88 6.87 22.46 6V6Z" fill="#FF5722"></path>
  </symbol>
</svg>